# AST/ASF file generated using VICON BodyLanguage
# -----------------------------------------------
:version 1.10
:name VICON
:units
  mass 1.0
  length 0.45
  angle deg
:documentation
   .ast/.asf automatically generated from VICON data using
   VICON BodyBuilder and BodyLanguage model FoxedUp or BRILLIANT.MOD
:root
   order TX TY TZ RX RY RZ
   axis XYZ
   position 0 0 0  
   orientation 0 0 0 
:bonedata
  begin
     id 1 
     name lhipjoint
     direction 0.678564 -0.644259 0.352817 
     length 2.99514 
     axis 0 0 0  XYZ
  end
  begin
     id 2 
     name lfemur
     direction 0.34202 -0.939693 0  
     length 7.29983  
     axis 0 0 20  XYZ
    dof rx ry rz
    limits (-160.0 20.0)
           (-70.0 70.0)
           (-60.0 70.0)
  end
  begin
     id 3 
     name ltibia
     direction 0.34202 -0.939693 0   
     length 8.59502   
     axis 0 0 20   XYZ
    dof rx
    limits (-10.0 170.0)
  end
  begin
     id 4 
     name lfoot
     direction 0.256607 -0.705022 0.661133   
     length 2.92136   
     axis -90 7.62852e-016 20   XYZ
    dof rx rz
    limits (-45.0 90.0)
           (-70.0 20.0)
  end
  begin
     id 5 
     name ltoes
     direction 1.53673e-011 -4.22167e-011 1   
     length 1.31421   
     axis -90 7.62852e-016 20   XYZ
    dof rx
    limits (-90.0 20.0)
  end
  begin
     id 6 
     name rhipjoint
     direction -0.664671 -0.655307 0.358867   
     length 2.94464  
     axis 0 0 0  XYZ 
  end
  begin
     id 7 
     name rfemur
     direction -0.34202 -0.939693 0   
     length 7.1902   
     axis 0 0 -20   XYZ
    dof rx ry rz
    limits (-160.0 20.0)
           (-70.0 70.0)
           (-70.0 60.0)
  end
  begin
     id 8 
     name rtibia
     direction -0.342306 -0.939589 0   
     length 7.92304   
     axis 0 0 -20   XYZ
    dof rx
    limits (-10.0 170.0)
 end
 begin
     id 9 
     name rfoot
     direction -0.135083 -0.371136 0.9187   
     length 2.14777  
     axis -90 -7.62852e-016 -20   XYZ
    dof rx rz
    limits (-45.0 90.0)
           (-20.0 70.0)
  end
  begin
     id 10 
     name rtoes
     direction -1.53535e-011 -4.21537e-011 1   
     length 1.05997   
     axis -90 -7.62852e-016 -20   XYZ
    dof rx
    limits (-90.0 20.0)
  end
  begin
     id 11 
     name lowerback
     direction -0.0195507 0.995133 0.0965771   
     length 2.09792   
     axis 0 0 0   XYZ
    dof rx ry rz
    limits (-20.0 45.0)
           (-30.0 30.0)
           (-30.0 30.0)
  end
  begin
     id 12 
     name upperback
     direction 0.00551419 0.999637 0.0263729   
     length 2.10514   
     axis 0 0 0   XYZ
    dof rx ry rz
    limits (-20.0 45.0)
           (-30.0 30.0)
           (-30.0 30.0)
  end
  begin
     id 13 
     name thorax
     direction 0.0138853 0.999728 -0.0187549   
     length 2.12411   
     axis 0 0 0   XYZ
    dof rx ry rz
    limits (-20.0 45.0)
           (-30.0 30.0)
           (-30.0 30.0)
  end
  begin
     id 14 
     name lowerneck
     direction 0.00575564 0.995441 0.0952053   
     length 2.98955   
     axis 0 0 0   XYZ
    dof rx ry rz
    limits (-20.0 45.0)
           (-30.0 30.0)
           (-30.0 30.0)
  end
  begin
     id 15 
     name upperneck
     direction 0.0362743 0.998452 -0.0421753   
     length 3.03688   
     axis 0 0 0   XYZ
    dof rx ry rz
    limits (-20.0 45.0)
           (-30.0 30.0)
           (-30.0 30.0)
  end
  begin
     id 16
     name head
     direction -0.0138164 0.799054 0.6011  
     length 1.47017  
     axis 0 0 0   XYZ
    dof rx ry rz
    limits (-20.0 45.0)
           (-30.0 30.0)
           (-30.0 30.0)
  end
  begin
     id 17 
     name lclavicle
     direction 0.925636 0.378361 -0.006363  
     length 3.33831  
     axis 0 0 0   XYZ
    dof ry rz
    limits (-20.0 10.0)
           (0.0 20.0)
  end
  begin
     id 18 
     name lhumerus
     direction 1 -4.48983e-011 -5.50319e-028   
     length 4.79344   
     axis -180 -30 -90   XYZ
    dof rx ry rz
    limits (-60.0 90.0)
           (-90.0 90.0)
           (-90.0 90.0)
  end
  begin
     id 19
     name lradius
     direction 1 -4.48905e-011 9.20478e-027   
     length 2.94221   
     axis -180 -30 -90   XYZ
    dof rx
    limits (-10.0 170.0)
  end
  begin
     id 20
     name lwrist
     direction 1 -4.4898e-011 2.08228e-026   
     length 1.4711   
     axis -1.38353e-014 90 90   XYZ
    dof ry
    limits (-180.0 0.0)
 end
  begin
     id 21 
     name lhand
     direction 1 -4.48957e-011 4.16456e-026   
     length 0.889984   
     axis -2.65735e-014 90 90   XYZ
    dof rx rz
    limits (-90.0 90.0)
           (-45.0 45.0)
  end
  begin
     id 22 
     name lfingers
     direction 1 -4.49044e-011 8.32913e-026   
     length 0.717528   
     axis -5.3147e-014 90 90   XYZ
    dof rx
    limits (0.0 90.0)
  end
  begin
     id 23
     name lthumb
     direction 0.707107 -6.35171e-011 0.707107   
     length 1.03023   
     axis -90 45 2.85299e-015   XYZ
    dof rx rz
    limits (-45.0 45.0)
           (-45.0 45.0)
  end
  begin
     id 24 
     name rclavicle
     direction -0.892514 0.445149 0.0725343   
     length 3.17271  
     axis 0 0 0   XYZ 
    dof ry rz
    limits (-10.0 20.0)
           (-20.0 0.0)
  end
  begin
     id 25 
     name rhumerus
     direction -1 -4.48952e-011 5.59695e-028  
     length 5.4863   
     axis -180 30 90   XYZ
    dof rx ry rz
    limits (-90.0 60.0)
           (-90.0 90.0)
           (-90.0 90.0)
  end
  begin
     id 26 
     name rradius
     direction -1 -4.48963e-011 1.14146e-026   
     length 3.17201   
     axis -180 30 90   XYZ
    dof rx
    limits (-10.0 170.0)
  end
  begin
     id 27 
     name rwrist
     direction -1 -4.49046e-011 2.08228e-026   
     length 1.58601   
     axis -1.38353e-014 -90 -90   XYZ
    dof ry
    limits (-180.0 0.0)
  end
  begin
     id 28
     name rhand
     direction -1 -4.48815e-011 4.16456e-026   
     length 0.874513   
     axis -2.65735e-014 -90 -90   XYZ
    dof rx rz
    limits (-90.0 90.0)
           (-45.0 45.0)
  end
  begin
     id 29
     name rfingers
     direction -1 -4.48918e-011 8.32913e-026   
     length 0.705055   
     axis -5.3147e-014 -90 -90   XYZ
    dof rx
    limits (0.0 90.0)
  end
  begin
     id 30
     name rthumb
     direction -0.707107 -6.34858e-011 0.707107   
     length 1.01232   
     axis -90 -45 -2.85299e-015   XYZ
    dof rx rz
    limits (-45.0 45.0)
           (-45.0 45.0)
  end
:hierarchy
  begin
    root lhipjoint rhipjoint lowerback
    lhipjoint lfemur
    lfemur ltibia
    ltibia lfoot
    lfoot ltoes
    rhipjoint rfemur
    rfemur rtibia
    rtibia rfoot
    rfoot rtoes
    lowerback upperback
    upperback thorax
    thorax lowerneck lclavicle rclavicle
    lowerneck upperneck
    upperneck head
    lclavicle lhumerus
    lhumerus lradius
    lradius lwrist
    lwrist lhand lthumb
    lhand lfingers
    rclavicle rhumerus
    rhumerus rradius
    rradius rwrist
    rwrist rhand rthumb
    rhand rfingers
  end

#!OML:ASF F:\VICON\USERDATA\INSTALL\rory3\rory3.ASF
:FULLY-SPECIFIED
:DEGREES
1360
root 3.91151 18.446 -0.700629 -151.115 86.9702 -165.692
lowerback -13.1205 -0.895932 -2.30414
upperback -7.25581 -0.561949 0.828522
thorax -0.227075 -0.0373617 2.0879
lowerneck -10.9767 -16.0291 5.0216
upperneck 6.0948 34.7077 3.71682
head 27.4155 30.3003 182.464
rclavicle 6.7711e-016 6.01324e-015
rhumerus 11.2085 0.736665 -16.2885
rradius 118.264
rwrist 5.45333
rhand -39.2079 -15.6411
rfingers 7.12502
rthumb -12.2041 -45.2651
lclavicle 6.7711e-016 6.01324e-015
lhumerus 17.3683 8.29677 29.8034
lradius 111.935
lwrist 4.32204
lhand -20.7366 11.3398
lfingers 7.12502
lthumb 5.62869 41.2451
rfemur -10.0196 16.2516 19.3816
rtibia 10.1892
rfoot -20.3284 -21.0522
rtoes -11.9652
lfemur -13.9279 -5.90598 -21.1041
ltibia 17.7521
lfoot -4.52425 6.58071
ltoes -10.2176
1361
root 3.90754 18.4496 -0.702456 -150.379 86.9742 -165.079
lowerback -12.9708 -0.885548 -2.21279
upperback -7.45489 -0.550219 0.809778
thorax -0.517937 -0.0234577 2.01901
lowerneck -10.6664 -16.0748 4.97658
upperneck 6.23501 34.8364 3.79509
head 27.4547 30.4174 182.451
rclavicle 1.55301e-016 3.47873e-016
rhumerus 11.0571 -0.502589 -16.1182
rradius 117.919
rwrist 5.45933
rhand -39.3848 -16.3379
rfingers 7.12502
rthumb -12.3747 -45.9516
lclavicle 1.55301e-016 3.47873e-016
lhumerus 17.3346 9.52997 29.6911
lradius 111.924
lwrist 4.66799
lhand -20.9317 11.1593
lfingers 7.12502
lthumb 5.4403 41.0695
rfemur -10.1155 16.2952 19.3596
rtibia 10.0646
rfoot -20.2294 -21.0822
rtoes -11.8134
lfemur -14.0817 -5.87663 -21.0603
ltibia 17.7506
lfoot -4.56696 6.62882
ltoes -10.2026
1362
root 3.9026 18.4521 -0.703221 -149.968 86.9881 -164.791
lowerback -12.974 -0.87761 -2.18038
upperback -7.49574 -0.54018 0.797835
thorax -0.559975 -0.0173767 1.98956
lowerneck -10.5853 -16.0868 4.975
upperneck 6.26283 34.8237 3.81534
head 27.44 30.4157 182.432
rclavicle 3.83282e-015 -2.5345e-015
rhumerus 10.9561 -2.07821 -15.9766
rradius 117.462
rwrist 5.21849
rhand -39.2789 -17.0408
rfingers 7.12502
rthumb -12.2726 -46.6606
lclavicle 3.83282e-015 -2.5345e-015
lhumerus 17.3253 10.9469 29.6129
lradius 111.856
lwrist 5.19164
lhand -21.2007 11.1832
lfingers 7.12502
lthumb 5.1806 41.0999
rfemur -10.1863 16.2959 19.327
rtibia 9.88274
rfoot -20.069 -21.1017
rtoes -11.8895
lfemur -14.2469 -5.88939 -21.0345
ltibia 17.7617
lfoot -4.532 6.5978
ltoes -10.3073
1363
root 3.89892 18.4542 -0.704924 -149.649 87.0081 -164.581
lowerback -12.804 -0.83419 -2.07678
upperback -7.66767 -0.487554 0.717011
thorax -0.835671 0.0133872 1.85394
lowerneck -10.3517 -16.217 5.00285
upperneck 6.29693 34.6104 3.81
head 27.3612 30.1869 182.479
rclavicle 2.92586e-015 1.78906e-015
rhumerus 10.5871 -3.29208 -15.9188
rradius 116.906
rwrist 4.45689
rhand -39.269 -17.513
rfingers 7.12502
rthumb -12.2631 -47.1334
lclavicle 2.92586e-015 1.78906e-015
lhumerus 17.2292 12.1815 29.5481
lradius 111.801
lwrist 5.89501
lhand -21.1773 11.2934
lfingers 7.12502
lthumb 5.20316 41.2095
rfemur -10.2403 16.2973 19.2772
rtibia 9.70594
rfoot -19.9512 -21.1235
rtoes -12.0735
lfemur -14.3713 -5.86952 -21.0262
ltibia 17.7409
lfoot -4.55771 6.55919
ltoes -10.2541
1364
root 3.89608 18.4552 -0.706941 -148.491 87.0067 -163.509
lowerback -12.6383 -0.806277 -1.9403
upperback -7.82937 -0.459224 0.678713
thorax -1.09708 0.0306992 1.74098
lowerneck -10.0715 -16.3126 5.01611
upperneck 6.37998 34.5499 3.83295
head 27.3231 29.9969 182.494
rclavicle 6.29899e-015 -8.74653e-015
rhumerus 10.0836 -4.39155 -15.803
rradius 116.269
rwrist 3.24323
rhand -39.2032 -17.4474
rfingers 7.12502
rthumb -12.1996 -47.0716
lclavicle 6.29899e-015 -8.74653e-015
lhumerus 17.0056 13.4624 29.5196
lradius 111.666
lwrist 6.55227
lhand -21.1136 11.2963
lfingers 7.12502
lthumb 5.26465 41.211
rfemur -10.2846 16.3063 19.2972
rtibia 9.57666
rfoot -19.803 -21.1681
rtoes -12.5456
lfemur -14.4385 -5.86168 -20.9593
ltibia 17.692
lfoot -4.56595 6.52453
ltoes -10.1748
1365
root 3.89337 18.4571 -0.709903 -148.001 87.0119 -163.062
lowerback -12.5881 -0.809439 -1.88183
upperback -7.85949 -0.469187 0.68363
thorax -1.15555 0.0252254 1.71218
lowerneck -9.91748 -16.2773 4.98898
upperneck 6.48985 34.7623 3.91821
head 27.3808 30.1724 182.42
rclavicle -8.19987e-016 1.68967e-015
rhumerus 9.40303 -5.9112 -15.3463
rradius 115.74
rwrist 1.85866
rhand -38.9856 -17.4456
rfingers 7.12502
rthumb -11.9897 -47.0822
lclavicle -8.19987e-016 1.68967e-015
lhumerus 16.6825 14.9276 29.5508
lradius 111.448
lwrist 6.9881
lhand -21.2277 11.452
lfingers 7.12502
lthumb 5.1545 41.3693
rfemur -10.2885 16.3071 19.3107
rtibia 9.49717
rfoot -19.7685 -21.1421
rtoes -12.4051
lfemur -14.458 -5.87438 -20.9347
ltibia 17.6381
lfoot -4.54034 6.49435
ltoes -10.1399
1366
root 3.88951 18.4597 -0.710797 -148.672 87.0768 -163.788
lowerback -12.677 -0.823655 -1.9581
upperback -7.77212 -0.483632 0.690863
thorax -1.01475 0.0161114 1.76073
lowerneck -9.94687 -16.2491 5.00047
upperneck 6.4484 34.6624 3.88805
head 27.2931 29.9481 182.354
rclavicle 2.48481e-017 1.98785e-015
rhumerus 9.03862 -7.25666 -15.3006
rradius 114.754
rwrist 1.01993
rhand -38.9075 -17.6227
rfingers 7.12502
rthumb -11.9144 -47.2637
lclavicle 2.48481e-017 1.98785e-015
lhumerus 16.2556 16.5212 29.5345
lradius 111.202
lwrist 7.57605
lhand -21.2964 11.6727
lfingers 7.12502
lthumb 5.0882 41.5917
rfemur -10.3303 16.323 19.2177
rtibia 9.41492
rfoot -19.7195 -21.0606
rtoes -12.2274
lfemur -14.5119 -5.8413 -21.004
ltibia 17.5914
lfoot -4.52197 6.48367
ltoes -10.1421
1367
root 3.88535 18.4597 -0.711983 -148.85 87.1346 -164.032
lowerback -12.9232 -0.844868 -2.03276
upperback -7.55967 -0.510352 0.721515
thorax -0.657277 -0.00543803 1.8307
lowerneck -10.1618 -16.1979 5.05719
upperneck 6.32099 34.4962 3.80072
head 27.2048 29.6566 182.357
rclavicle 1.83255e-015 -1.14301e-015
rhumerus 8.68249 -8.55535 -15.2806
rradius 113.707
rwrist 0.188137
rhand -39.24 -18.0005
rfingers 7.12502
rthumb -12.2351 -47.6226
lclavicle 1.83255e-015 -1.14301e-015
lhumerus 15.7854 18.2901 29.567
lradius 110.959
lwrist 8.27132
lhand -21.2338 12.0062
lfingers 7.12502
lthumb 5.14862 41.9237
rfemur -10.4266 16.3424 19.1262
rtibia 9.35299
rfoot -19.5902 -21.0423
rtoes -12.1313
lfemur -14.5753 -5.79949 -21.0367
ltibia 17.5366
lfoot -4.61037 6.45448
ltoes -10.1018
1368
root 3.88405 18.4619 -0.71544 -148.104 87.1768 -163.323
lowerback -12.9951 -0.858315 -2.01978
upperback -7.49706 -0.531897 0.757145
thorax -0.551747 -0.0193489 1.85759
lowerneck -10.1493 -16.1163 5.01082
upperneck 6.37248 34.7352 3.83809
head 27.2896 29.8854 182.349
rclavicle 6.09399e-015 -2.83268e-015
rhumerus 8.16269 -9.62002 -15.194
rradius 112.564
rwrist -0.388092
rhand -39.0399 -18.262
rfingers 7.12502
rthumb -12.0421 -47.8956
lclavicle 6.09399e-015 -2.83268e-015
lhumerus 15.0636 19.8008 29.5704
lradius 110.685
lwrist 8.99752
lhand -21.2757 12.2424
lfingers 7.12502
lthumb 5.10813 42.1609
rfemur -10.4856 16.3741 19.0946
rtibia 9.31795
rfoot -19.531 -21.0872
rtoes -12.1932
lfemur -14.5941 -5.75854 -21.0298
ltibia 17.4993
lfoot -4.63968 6.45942
ltoes -10.201
1369
root 3.88165 18.4644 -0.718413 -146.674 87.2308 -161.937
lowerback -12.947 -0.838479 -1.94405
upperback -7.52425 -0.514005 0.761193
thorax -0.607312 -0.0113678 1.82149
lowerneck -10.0684 -16.0795 4.9575
upperneck 6.42301 34.85 3.87371
head 27.3147 30.0265 182.314
rclavicle 7.54761e-015 -5.76476e-015
rhumerus 7.46728 -10.7255 -15.1117
rradius 111.406
rwrist -0.725583
rhand -37.7054 -18.2266
rfingers 7.12502
rthumb -10.7552 -47.9312
lclavicle 7.54761e-015 -5.76476e-015
lhumerus 14.2412 21.0908 29.5087
lradius 110.322
lwrist 9.66986
lhand -21.4906 12.2393
lfingers 7.12502
lthumb 4.90065 42.1626
rfemur -10.5675 16.4358 19.0952
rtibia 9.34336
rfoot -19.5947 -21.0432
rtoes -12.2017
lfemur -14.6131 -5.7062 -20.9946
ltibia 17.4476
lfoot -4.67769 6.46468
ltoes -10.2396
1370
root 3.87787 18.4668 -0.720625 -145.357 87.305 -160.661
lowerback -12.9375 -0.779222 -1.884
upperback -7.48549 -0.445117 0.732435
thorax -0.57522 0.0186118 1.76611
lowerneck -10.1117 -16.0496 4.92886
upperneck 6.40225 34.7811 3.89404
head 27.2617 30.1069 182.209
rclavicle 1.60891e-015 1.19271e-015
rhumerus 6.64573 -11.7954 -15.0715
rradius 110.24
rwrist -1.28806
rhand -36.612 -18.3051
rfingers 7.12502
rthumb -9.70034 -48.0617
lclavicle 1.60891e-015 1.19271e-015
lhumerus 13.4693 22.3974 29.3986
lradius 109.921
lwrist 10.3773
lhand -21.6535 12.2888
lfingers 7.12502
lthumb 4.74334 42.2157
rfemur -10.6665 16.51 19.0715
rtibia 9.39162
rfoot -19.6273 -20.9859
rtoes -12.5815
lfemur -14.6147 -5.71741 -20.9689
ltibia 17.3647
lfoot -4.59813 6.4038
ltoes -10.2017
